<svg width="30" height="15" viewBox="0 0 30 15" fill="none" xmlns="http://www.w3.org/2000/svg">
<path d="M22.5102 0C19.8499 0 16.985 0.360469 15.0068 1.35176C13.0286 0.360469 10.1637 0 7.50341 0C5.52524 0 3.42428 0.198258 1.66439 0.711925C0.668486 1.00931 0 1.64914 0 2.37909V12.5443C0 13.7158 1.66439 14.581 3.38336 14.2926C4.72033 14.0673 6.13915 13.9682 7.50341 13.9682C9.63165 13.9682 11.8963 14.2025 13.7244 14.7972C14.543 15.0676 15.4707 15.0676 16.2756 14.7972C18.1037 14.1935 20.3683 13.9682 22.4966 13.9682C23.8608 13.9682 25.2797 14.0673 26.6166 14.2926C28.3356 14.59 30 13.7248 30 12.5443V2.37909C30 1.64914 29.3315 1.00931 28.3356 0.711925C26.5894 0.198258 24.4884 0 22.5102 0ZM27.2851 11.4719C27.2851 12.0397 26.4939 12.4542 25.648 12.3551C24.6248 12.2289 23.5607 12.1748 22.5102 12.1748C20.191 12.1748 16.8486 12.7606 15.0068 13.5266V3.1541C16.8486 2.3881 20.191 1.80234 22.5102 1.80234C23.7653 1.80234 25.0068 1.88345 26.1937 2.05467C26.8213 2.14479 27.2851 2.51427 27.2851 2.93782V11.4719Z" fill="url(#paint0_linear_12_312)"/>
<path d="M17.7081 5.86356C17.2715 5.86356 16.8759 5.68365 16.7395 5.39581C16.5621 5.045 16.8622 4.65821 17.3943 4.55027C19.4953 4.10051 22.2101 3.95659 24.7067 4.14549C25.2661 4.19047 25.6753 4.52328 25.6071 4.89208C25.5389 5.26088 25.0341 5.53074 24.4748 5.48576C22.2647 5.31486 19.85 5.44978 18.0219 5.83657C17.9127 5.84557 17.8036 5.86356 17.7081 5.86356Z" fill="url(#paint1_linear_12_312)"/>
<path d="M17.7081 8.26053C17.2715 8.26053 16.8759 8.08063 16.7395 7.79278C16.5621 7.44197 16.8622 7.05518 17.3943 6.94724C19.4816 6.49749 22.2101 6.35356 24.7067 6.54246C25.2661 6.58744 25.6753 6.92026 25.6071 7.28906C25.5389 7.65786 25.0341 7.92771 24.4748 7.88274C22.2647 7.71183 19.85 7.84676 18.0219 8.23355C17.9127 8.25154 17.8036 8.26053 17.7081 8.26053Z" fill="url(#paint2_linear_12_312)"/>
<path d="M17.7081 10.6575C17.2715 10.6575 16.8759 10.4776 16.7395 10.1898C16.5621 9.83895 16.8622 9.45216 17.3943 9.34422C19.4816 8.89446 22.2101 8.75054 24.7067 8.93944C25.2661 8.98441 25.6753 9.31723 25.6071 9.68603C25.5389 10.0548 25.0341 10.3157 24.4748 10.2797C22.2647 10.1088 19.85 10.2437 18.0219 10.6305C17.9127 10.6485 17.8036 10.6575 17.7081 10.6575Z" fill="url(#paint3_linear_12_312)"/>
<defs>
<linearGradient id="paint0_linear_12_312" x1="15" y1="0" x2="15" y2="15" gradientUnits="userSpaceOnUse">
<stop stop-color="#FD2368"/>
<stop offset="0.955" stop-color="#FF9DC6"/>
</linearGradient>
<linearGradient id="paint1_linear_12_312" x1="21.1515" y1="4.06445" x2="21.1515" y2="5.86356" gradientUnits="userSpaceOnUse">
<stop stop-color="#FD2368"/>
<stop offset="0.955" stop-color="#FF9DC6"/>
</linearGradient>
<linearGradient id="paint2_linear_12_312" x1="21.1515" y1="6.46143" x2="21.1515" y2="8.26053" gradientUnits="userSpaceOnUse">
<stop stop-color="#FD2368"/>
<stop offset="0.955" stop-color="#FF9DC6"/>
</linearGradient>
<linearGradient id="paint3_linear_12_312" x1="21.1515" y1="8.8584" x2="21.1515" y2="10.6575" gradientUnits="userSpaceOnUse">
<stop stop-color="#FD2368"/>
<stop offset="0.955" stop-color="#FF9DC6"/>
</linearGradient>
</defs>
</svg>
