<svg width="28" height="21" viewBox="0 0 28 21" fill="none" xmlns="http://www.w3.org/2000/svg">
<path d="M15.1088 14.4141C15.2904 14.0541 15.1737 13.6441 14.8105 13.3641L12.1 11.3041L12.1389 11.2741C14.3955 9.33414 16.0037 7.10414 16.9504 4.74414H19.4664C20.1667 4.74414 20.7503 4.29414 20.7503 3.75414V3.73414C20.7503 3.19414 20.1667 2.74414 19.4664 2.74414H11.672V1.74414C11.672 1.19414 11.0884 0.744141 10.3751 0.744141C9.66186 0.744141 9.07825 1.19414 9.07825 1.74414V2.74414H1.28392C0.583602 2.74414 0 3.19414 0 3.73414C0 4.28414 0.583602 4.72414 1.28392 4.72414H14.4863C13.6174 6.66414 12.2427 8.49414 10.3751 10.0941C9.32466 9.20414 8.44278 8.23414 7.70355 7.21414C7.49604 6.92414 7.11994 6.74414 6.69197 6.74414C5.79711 6.74414 5.22648 7.49414 5.66742 8.09414C6.48447 9.22414 7.48308 10.3041 8.65028 11.3041L2.98285 15.6141C2.4641 16.0041 2.4641 16.6441 2.98285 17.0341C3.48864 17.4241 4.30569 17.4241 4.82444 17.0341L10.3751 12.7441L12.9949 14.7641C13.6563 15.2741 14.7846 15.0841 15.1088 14.4141ZM21.3987 8.74414C20.6206 8.74414 19.9203 9.11414 19.6479 9.68414L14.8883 19.4841C14.5771 20.0941 15.1737 20.7441 16.0166 20.7441C16.5224 20.7441 16.9763 20.5041 17.1579 20.1341L18.3121 17.7441H24.4724L25.6396 20.1341C25.8211 20.4941 26.2751 20.7441 26.7808 20.7441C27.6238 20.7441 28.2204 20.0941 27.9221 19.4841L23.1625 9.68414C22.8772 9.11414 22.1769 8.74414 21.3987 8.74414ZM19.2978 15.7441L21.3987 11.4141L23.4997 15.7441H19.2978Z" fill="url(#paint0_linear_107_13)"/>
<defs>
<linearGradient id="paint0_linear_107_13" x1="14" y1="0.744141" x2="14" y2="20.7441" gradientUnits="userSpaceOnUse">
<stop stop-color="#FD2368"/>
<stop offset="0.955" stop-color="#FF9DC6"/>
</linearGradient>
</defs>
</svg>
