<svg xmlns="http://www.w3.org/2000/svg" xmlns:xlink="http://www.w3.org/1999/xlink" width="500" zoomAndPan="magnify" viewBox="0 0 375 374.999991" height="500" preserveAspectRatio="xMidYMid meet" version="1.0"><defs><g/><clipPath id="0a764e4ce8"><path d="M 112.5 160.445312 L 158.25 160.445312 L 158.25 206.195312 L 112.5 206.195312 Z M 112.5 160.445312 " clip-rule="nonzero"/></clipPath></defs><g clip-path="url(#0a764e4ce8)"><path fill="#ff7faf" d="M 146.96875 160.445312 L 146.96875 199.941406 L 112.5 194.800781 L 146.96875 206.40625 L 158.460938 201.621094 L 158.460938 165.21875 Z M 134.90625 167.167969 L 124.347656 177.609375 L 117.992188 172.820312 L 115.371094 173.695312 L 121.835938 180.085938 L 115.371094 186.476562 L 117.992188 187.351562 L 124.347656 182.5625 L 134.90625 193 L 141.226562 190.320312 L 141.226562 169.851562 Z M 134.90625 174.613281 L 134.90625 185.578125 L 127.652344 180.085938 Z M 134.90625 174.613281 " fill-opacity="1" fill-rule="nonzero"/></g><g fill="#000000" fill-opacity="1"><g transform="translate(164.976555, 200.464924)"><g><path d="M -1.1875 0 L 0 -1.1875 L 0 -32.0625 L -1.1875 -33.25 L 3.5625 -33.25 L 2.375 -32.0625 L 2.375 -1.1875 L 7.125 -1.1875 L 8.3125 -2.375 L 8.3125 0 Z M -1.1875 0 "/></g></g></g><g fill="#000000" fill-opacity="1"><g transform="translate(178.27308, 200.464924)"><g><path d="M -1.1875 0 L 0 -1.1875 L 0 -32.0625 L -1.1875 -33.25 L 3.5625 -33.25 L 2.375 -32.0625 L 2.375 -1.1875 L 3.5625 0 Z M -1.1875 0 "/></g></g></g><g fill="#000000" fill-opacity="1"><g transform="translate(186.820582, 200.464924)"><g><path d="M 0 0 L 0 -2.375 L 1.1875 -1.1875 L 5.9375 -1.1875 C 6.257812 -1.1875 6.53125 -1.296875 6.75 -1.515625 C 7 -1.742188 7.125 -2.03125 7.125 -2.375 L 7.125 -10.6875 C 7.125 -11.007812 7 -11.28125 6.75 -11.5 C 6.53125 -11.75 6.257812 -11.875 5.9375 -11.875 L 2.375 -11.875 C 1.707031 -11.875 1.140625 -12.097656 0.671875 -12.546875 C 0.222656 -13.015625 0 -13.582031 0 -14.25 L 0 -30.875 C 0 -31.519531 0.222656 -32.078125 0.671875 -32.546875 C 1.140625 -33.015625 1.707031 -33.25 2.375 -33.25 L 9.5 -33.25 L 9.5 -30.875 L 8.3125 -32.0625 L 3.5625 -32.0625 C 3.21875 -32.0625 2.929688 -31.9375 2.703125 -31.6875 C 2.484375 -31.46875 2.375 -31.195312 2.375 -30.875 L 2.375 -14.25 C 2.375 -13.90625 2.484375 -13.617188 2.703125 -13.390625 C 2.929688 -13.171875 3.21875 -13.0625 3.5625 -13.0625 L 7.125 -13.0625 C 7.769531 -13.0625 8.328125 -12.828125 8.796875 -12.359375 C 9.265625 -11.890625 9.5 -11.332031 9.5 -10.6875 L 9.5 -2.375 C 9.5 -1.707031 9.265625 -1.140625 8.796875 -0.671875 C 8.328125 -0.222656 7.769531 0 7.125 0 Z M 0 0 "/></g></g></g><g fill="#000000" fill-opacity="1"><g transform="translate(201.304363, 200.464924)"><g><path d="M 5.9375 -1.1875 C 6.257812 -1.1875 6.53125 -1.296875 6.75 -1.515625 C 7 -1.742188 7.125 -2.03125 7.125 -2.375 L 7.125 -10.6875 C 7.125 -11.007812 7 -11.28125 6.75 -11.5 C 6.53125 -11.75 6.257812 -11.875 5.9375 -11.875 L 3.5625 -11.875 C 3.21875 -11.875 2.929688 -11.75 2.703125 -11.5 C 2.484375 -11.28125 2.375 -11.007812 2.375 -10.6875 L 2.375 -1.1875 Z M 2.375 -12.734375 C 2.71875 -12.953125 3.113281 -13.0625 3.5625 -13.0625 L 5.9375 -13.0625 C 6.257812 -13.0625 6.53125 -13.171875 6.75 -13.390625 C 7 -13.617188 7.125 -13.90625 7.125 -14.25 L 7.125 -30.875 C 7.125 -31.195312 7 -31.46875 6.75 -31.6875 C 6.53125 -31.9375 6.257812 -32.0625 5.9375 -32.0625 L 2.375 -32.0625 Z M -1.1875 0 L 0 -1.1875 L 0 -32.0625 L -1.1875 -33.25 L 7.125 -33.25 C 7.769531 -33.25 8.328125 -33.015625 8.796875 -32.546875 C 9.265625 -32.078125 9.5 -31.519531 9.5 -30.875 L 9.5 -14.25 C 9.5 -13.582031 9.265625 -13.015625 8.796875 -12.546875 C 8.742188 -12.515625 8.707031 -12.488281 8.6875 -12.46875 C 8.707031 -12.414062 8.742188 -12.378906 8.796875 -12.359375 C 9.265625 -11.890625 9.5 -11.332031 9.5 -10.6875 L 9.5 -2.375 C 9.5 -1.707031 9.265625 -1.140625 8.796875 -0.671875 C 8.328125 -0.222656 7.769531 0 7.125 0 Z M -1.1875 0 "/></g></g></g><g fill="#000000" fill-opacity="1"><g transform="translate(215.788142, 200.464924)"><g><path d="M 2.375 -0.296875 L 2.34375 -0.296875 C 2.34375 -0.296875 2.351562 -0.296875 2.375 -0.296875 Z M 5.9375 -1.1875 C 6.257812 -1.1875 6.53125 -1.296875 6.75 -1.515625 C 7 -1.742188 7.125 -2.03125 7.125 -2.375 L 7.125 -30.875 C 7.125 -31.195312 7 -31.46875 6.75 -31.6875 C 6.53125 -31.9375 6.257812 -32.0625 5.9375 -32.0625 L 3.5625 -32.0625 C 3.21875 -32.0625 2.929688 -31.9375 2.703125 -31.6875 C 2.484375 -31.46875 2.375 -31.195312 2.375 -30.875 L 2.375 -2.375 C 2.375 -2.03125 2.484375 -1.742188 2.703125 -1.515625 C 2.929688 -1.296875 3.21875 -1.1875 3.5625 -1.1875 Z M 2.375 0 C 1.707031 0 1.140625 -0.222656 0.671875 -0.671875 C 0.222656 -1.140625 0 -1.707031 0 -2.375 L 0 -30.875 C 0 -31.519531 0.222656 -32.078125 0.671875 -32.546875 C 1.140625 -33.015625 1.707031 -33.25 2.375 -33.25 L 7.125 -33.25 C 7.769531 -33.25 8.328125 -33.015625 8.796875 -32.546875 C 9.265625 -32.078125 9.5 -31.519531 9.5 -30.875 L 9.5 -2.375 C 9.5 -1.707031 9.265625 -1.140625 8.796875 -0.671875 C 8.328125 -0.222656 7.769531 0 7.125 0 Z M 2.375 -34.4375 L 2.375 -35.625 L 4.75 -36.8125 L 7.125 -35.625 L 7.125 -34.4375 L 4.75 -35.625 Z M 2.375 -34.4375 "/></g></g></g><g fill="#000000" fill-opacity="1"><g transform="translate(230.271922, 200.464924)"><g><path d="M 7.125 -13.0625 L 7.125 -30.875 C 7.125 -31.195312 7 -31.46875 6.75 -31.6875 C 6.53125 -31.9375 6.257812 -32.0625 5.9375 -32.0625 L 3.5625 -32.0625 C 3.21875 -32.0625 2.929688 -31.9375 2.703125 -31.6875 C 2.484375 -31.46875 2.375 -31.195312 2.375 -30.875 L 2.375 -13.0625 Z M -1.1875 0 L 0 -1.1875 L 0 -30.875 C 0 -31.519531 0.222656 -32.078125 0.671875 -32.546875 C 1.140625 -33.015625 1.707031 -33.25 2.375 -33.25 L 7.125 -33.25 C 7.769531 -33.25 8.328125 -33.015625 8.796875 -32.546875 C 9.265625 -32.078125 9.5 -31.519531 9.5 -30.875 L 9.5 -1.1875 L 10.6875 0 L 7.125 0 L 7.125 -11.875 L 2.375 -11.875 L 2.375 0 Z M -1.1875 0 "/></g></g></g><g fill="#000000" fill-opacity="1"><g transform="translate(144.585933, 214.514883)"><g><path d="M 4.875 -6.375 C 4.84375 -6.144531 4.820312 -5.921875 4.8125 -5.703125 C 4.8125 -5.492188 4.8125 -5.332031 4.8125 -5.21875 C 4.8125 -5.070312 4.8125 -4.9375 4.8125 -4.8125 C 4.820312 -4.6875 4.828125 -4.578125 4.828125 -4.484375 L 4.625 -4.484375 C 4.582031 -4.898438 4.523438 -5.226562 4.453125 -5.46875 C 4.378906 -5.71875 4.253906 -5.894531 4.078125 -6 C 3.898438 -6.113281 3.617188 -6.171875 3.234375 -6.171875 L 2.671875 -6.171875 C 2.460938 -6.171875 2.304688 -6.148438 2.203125 -6.109375 C 2.097656 -6.078125 2.023438 -6.007812 1.984375 -5.90625 C 1.953125 -5.800781 1.9375 -5.640625 1.9375 -5.421875 L 1.9375 -0.953125 C 1.9375 -0.734375 1.957031 -0.570312 2 -0.46875 C 2.050781 -0.363281 2.140625 -0.289062 2.265625 -0.25 C 2.398438 -0.21875 2.597656 -0.195312 2.859375 -0.1875 L 2.859375 0 C 2.703125 -0.0078125 2.503906 -0.015625 2.265625 -0.015625 C 2.023438 -0.0234375 1.78125 -0.03125 1.53125 -0.03125 C 1.289062 -0.03125 1.066406 -0.0234375 0.859375 -0.015625 C 0.660156 -0.015625 0.5 -0.0078125 0.375 0 L 0.375 -0.1875 C 0.582031 -0.195312 0.738281 -0.21875 0.84375 -0.25 C 0.945312 -0.289062 1.015625 -0.363281 1.046875 -0.46875 C 1.085938 -0.570312 1.109375 -0.734375 1.109375 -0.953125 L 1.109375 -5.421875 C 1.109375 -5.640625 1.085938 -5.800781 1.046875 -5.90625 C 1.015625 -6.007812 0.945312 -6.082031 0.84375 -6.125 C 0.738281 -6.164062 0.582031 -6.1875 0.375 -6.1875 L 0.375 -6.375 C 0.601562 -6.363281 0.835938 -6.359375 1.078125 -6.359375 C 1.328125 -6.359375 1.570312 -6.351562 1.8125 -6.34375 C 2.050781 -6.34375 2.273438 -6.34375 2.484375 -6.34375 C 2.691406 -6.34375 2.859375 -6.34375 2.984375 -6.34375 C 3.265625 -6.34375 3.578125 -6.34375 3.921875 -6.34375 C 4.273438 -6.351562 4.59375 -6.363281 4.875 -6.375 Z M 3.46875 -3.203125 C 3.46875 -3.203125 3.46875 -3.171875 3.46875 -3.109375 C 3.46875 -3.054688 3.46875 -3.03125 3.46875 -3.03125 L 1.671875 -3.03125 C 1.671875 -3.03125 1.671875 -3.054688 1.671875 -3.109375 C 1.671875 -3.171875 1.671875 -3.203125 1.671875 -3.203125 Z M 3.640625 -4.390625 C 3.617188 -4.046875 3.609375 -3.785156 3.609375 -3.609375 C 3.617188 -3.429688 3.625 -3.265625 3.625 -3.109375 C 3.625 -2.960938 3.625 -2.796875 3.625 -2.609375 C 3.632812 -2.429688 3.648438 -2.175781 3.671875 -1.84375 L 3.46875 -1.84375 C 3.4375 -2.03125 3.40625 -2.210938 3.375 -2.390625 C 3.34375 -2.578125 3.269531 -2.726562 3.15625 -2.84375 C 3.050781 -2.96875 2.863281 -3.03125 2.59375 -3.03125 L 2.59375 -3.203125 C 2.789062 -3.203125 2.941406 -3.242188 3.046875 -3.328125 C 3.160156 -3.410156 3.238281 -3.515625 3.28125 -3.640625 C 3.332031 -3.765625 3.363281 -3.894531 3.375 -4.03125 C 3.394531 -4.164062 3.414062 -4.285156 3.4375 -4.390625 Z M 3.640625 -4.390625 "/></g></g></g><g fill="#000000" fill-opacity="1"><g transform="translate(149.706969, 214.514883)"><g><path d="M 3.0625 -4.765625 C 3.21875 -4.765625 3.359375 -4.726562 3.484375 -4.65625 C 3.609375 -4.59375 3.703125 -4.507812 3.765625 -4.40625 C 3.835938 -4.300781 3.875 -4.179688 3.875 -4.046875 C 3.875 -3.898438 3.828125 -3.769531 3.734375 -3.65625 C 3.640625 -3.539062 3.515625 -3.484375 3.359375 -3.484375 C 3.234375 -3.484375 3.125 -3.519531 3.03125 -3.59375 C 2.9375 -3.675781 2.890625 -3.796875 2.890625 -3.953125 C 2.890625 -4.066406 2.921875 -4.160156 2.984375 -4.234375 C 3.046875 -4.316406 3.113281 -4.382812 3.1875 -4.4375 C 3.144531 -4.5 3.082031 -4.53125 3 -4.53125 C 2.820312 -4.53125 2.65625 -4.472656 2.5 -4.359375 C 2.34375 -4.242188 2.207031 -4.097656 2.09375 -3.921875 C 1.988281 -3.753906 1.90625 -3.570312 1.84375 -3.375 C 1.78125 -3.1875 1.75 -3.003906 1.75 -2.828125 L 1.75 -0.921875 C 1.75 -0.628906 1.832031 -0.429688 2 -0.328125 C 2.175781 -0.234375 2.410156 -0.1875 2.703125 -0.1875 L 2.703125 0 C 2.566406 -0.0078125 2.375 -0.015625 2.125 -0.015625 C 1.875 -0.0234375 1.609375 -0.03125 1.328125 -0.03125 C 1.117188 -0.03125 0.910156 -0.0234375 0.703125 -0.015625 C 0.503906 -0.015625 0.359375 -0.0078125 0.265625 0 L 0.265625 -0.1875 C 0.503906 -0.1875 0.675781 -0.226562 0.78125 -0.3125 C 0.882812 -0.40625 0.9375 -0.582031 0.9375 -0.84375 L 0.9375 -3.65625 C 0.9375 -3.925781 0.890625 -4.125 0.796875 -4.25 C 0.703125 -4.382812 0.523438 -4.453125 0.265625 -4.453125 L 0.265625 -4.640625 C 0.453125 -4.617188 0.632812 -4.609375 0.8125 -4.609375 C 0.988281 -4.609375 1.15625 -4.617188 1.3125 -4.640625 C 1.476562 -4.660156 1.625 -4.691406 1.75 -4.734375 L 1.75 -3.609375 C 1.820312 -3.785156 1.914062 -3.960938 2.03125 -4.140625 C 2.15625 -4.316406 2.304688 -4.460938 2.484375 -4.578125 C 2.660156 -4.703125 2.851562 -4.765625 3.0625 -4.765625 Z M 3.0625 -4.765625 "/></g></g></g><g fill="#000000" fill-opacity="1"><g transform="translate(153.712, 214.514883)"><g><path d="M 2.46875 -4.765625 C 2.851562 -4.765625 3.195312 -4.675781 3.5 -4.5 C 3.800781 -4.332031 4.046875 -4.066406 4.234375 -3.703125 C 4.421875 -3.347656 4.515625 -2.882812 4.515625 -2.3125 C 4.515625 -1.738281 4.421875 -1.269531 4.234375 -0.90625 C 4.046875 -0.550781 3.800781 -0.289062 3.5 -0.125 C 3.195312 0.0390625 2.851562 0.125 2.46875 0.125 C 2.09375 0.125 1.75 0.0390625 1.4375 -0.125 C 1.125 -0.289062 0.875 -0.550781 0.6875 -0.90625 C 0.507812 -1.269531 0.421875 -1.738281 0.421875 -2.3125 C 0.421875 -2.882812 0.507812 -3.347656 0.6875 -3.703125 C 0.875 -4.066406 1.125 -4.332031 1.4375 -4.5 C 1.75 -4.675781 2.09375 -4.765625 2.46875 -4.765625 Z M 2.46875 -4.578125 C 2.125 -4.578125 1.84375 -4.398438 1.625 -4.046875 C 1.40625 -3.691406 1.296875 -3.113281 1.296875 -2.3125 C 1.296875 -1.507812 1.40625 -0.929688 1.625 -0.578125 C 1.84375 -0.222656 2.125 -0.046875 2.46875 -0.046875 C 2.8125 -0.046875 3.09375 -0.222656 3.3125 -0.578125 C 3.53125 -0.929688 3.640625 -1.507812 3.640625 -2.3125 C 3.640625 -3.113281 3.53125 -3.691406 3.3125 -4.046875 C 3.09375 -4.398438 2.8125 -4.578125 2.46875 -4.578125 Z M 2.46875 -4.578125 "/></g></g></g><g fill="#000000" fill-opacity="1"><g transform="translate(158.644037, 214.514883)"><g><path d="M 3.28125 -4.765625 C 3.507812 -4.765625 3.703125 -4.734375 3.859375 -4.671875 C 4.015625 -4.609375 4.140625 -4.523438 4.234375 -4.421875 C 4.347656 -4.296875 4.425781 -4.144531 4.46875 -3.96875 C 4.519531 -3.789062 4.546875 -3.546875 4.546875 -3.234375 L 4.546875 -0.84375 C 4.546875 -0.582031 4.597656 -0.40625 4.703125 -0.3125 C 4.816406 -0.226562 4.992188 -0.1875 5.234375 -0.1875 L 5.234375 0 C 5.128906 -0.0078125 4.972656 -0.015625 4.765625 -0.015625 C 4.554688 -0.0234375 4.351562 -0.03125 4.15625 -0.03125 C 3.957031 -0.03125 3.765625 -0.0234375 3.578125 -0.015625 C 3.390625 -0.015625 3.25 -0.0078125 3.15625 0 L 3.15625 -0.1875 C 3.363281 -0.1875 3.515625 -0.226562 3.609375 -0.3125 C 3.703125 -0.40625 3.75 -0.582031 3.75 -0.84375 L 3.75 -3.4375 C 3.75 -3.625 3.734375 -3.796875 3.703125 -3.953125 C 3.671875 -4.109375 3.601562 -4.234375 3.5 -4.328125 C 3.394531 -4.421875 3.234375 -4.46875 3.015625 -4.46875 C 2.765625 -4.46875 2.539062 -4.394531 2.34375 -4.25 C 2.15625 -4.113281 2.007812 -3.921875 1.90625 -3.671875 C 1.800781 -3.421875 1.75 -3.140625 1.75 -2.828125 L 1.75 -0.84375 C 1.75 -0.582031 1.796875 -0.40625 1.890625 -0.3125 C 1.984375 -0.226562 2.132812 -0.1875 2.34375 -0.1875 L 2.34375 0 C 2.25 -0.0078125 2.109375 -0.015625 1.921875 -0.015625 C 1.734375 -0.0234375 1.539062 -0.03125 1.34375 -0.03125 C 1.144531 -0.03125 0.9375 -0.0234375 0.71875 -0.015625 C 0.507812 -0.015625 0.359375 -0.0078125 0.265625 0 L 0.265625 -0.1875 C 0.503906 -0.1875 0.675781 -0.226562 0.78125 -0.3125 C 0.882812 -0.40625 0.9375 -0.582031 0.9375 -0.84375 L 0.9375 -3.65625 C 0.9375 -3.925781 0.890625 -4.125 0.796875 -4.25 C 0.703125 -4.382812 0.523438 -4.453125 0.265625 -4.453125 L 0.265625 -4.640625 C 0.453125 -4.617188 0.632812 -4.609375 0.8125 -4.609375 C 0.988281 -4.609375 1.15625 -4.617188 1.3125 -4.640625 C 1.476562 -4.660156 1.625 -4.691406 1.75 -4.734375 L 1.75 -3.671875 C 1.90625 -4.078125 2.125 -4.359375 2.40625 -4.515625 C 2.6875 -4.679688 2.976562 -4.765625 3.28125 -4.765625 Z M 3.28125 -4.765625 "/></g></g></g><g fill="#000000" fill-opacity="1"><g transform="translate(164.017072, 214.514883)"><g><path d="M 1.703125 -6.125 L 1.703125 -4.625 L 3.046875 -4.625 L 3.046875 -4.453125 L 1.703125 -4.453125 L 1.703125 -0.96875 C 1.703125 -0.6875 1.753906 -0.488281 1.859375 -0.375 C 1.960938 -0.257812 2.101562 -0.203125 2.28125 -0.203125 C 2.46875 -0.203125 2.625 -0.273438 2.75 -0.421875 C 2.882812 -0.566406 3 -0.8125 3.09375 -1.15625 L 3.28125 -1.109375 C 3.21875 -0.765625 3.097656 -0.472656 2.921875 -0.234375 C 2.742188 0.00390625 2.472656 0.125 2.109375 0.125 C 1.898438 0.125 1.726562 0.0976562 1.59375 0.046875 C 1.46875 -0.00390625 1.351562 -0.078125 1.25 -0.171875 C 1.113281 -0.304688 1.019531 -0.46875 0.96875 -0.65625 C 0.925781 -0.851562 0.90625 -1.113281 0.90625 -1.4375 L 0.90625 -4.453125 L 0.03125 -4.453125 L 0.03125 -4.625 L 0.90625 -4.625 L 0.90625 -6 C 1.050781 -6.007812 1.191406 -6.019531 1.328125 -6.03125 C 1.460938 -6.050781 1.585938 -6.082031 1.703125 -6.125 Z M 1.703125 -6.125 "/></g></g></g><g fill="#000000" fill-opacity="1"><g transform="translate(167.203096, 214.514883)"><g><path d="M 3.875 -2.6875 L 3.875 -2.15625 L 0.625 -2.15625 L 0.625 -2.6875 Z M 3.875 -2.6875 "/></g></g></g><g fill="#000000" fill-opacity="1"><g transform="translate(171.694123, 214.514883)"><g><path d="M 2.453125 -4.765625 C 2.972656 -4.765625 3.378906 -4.601562 3.671875 -4.28125 C 3.972656 -3.957031 4.125 -3.457031 4.125 -2.78125 L 0.953125 -2.78125 L 0.9375 -2.953125 L 3.265625 -2.953125 C 3.273438 -3.242188 3.25 -3.515625 3.1875 -3.765625 C 3.132812 -4.015625 3.039062 -4.210938 2.90625 -4.359375 C 2.78125 -4.515625 2.613281 -4.59375 2.40625 -4.59375 C 2.132812 -4.59375 1.890625 -4.453125 1.671875 -4.171875 C 1.460938 -3.898438 1.335938 -3.460938 1.296875 -2.859375 L 1.328125 -2.828125 C 1.316406 -2.734375 1.304688 -2.628906 1.296875 -2.515625 C 1.285156 -2.410156 1.28125 -2.304688 1.28125 -2.203125 C 1.28125 -1.796875 1.347656 -1.445312 1.484375 -1.15625 C 1.617188 -0.863281 1.789062 -0.640625 2 -0.484375 C 2.21875 -0.328125 2.4375 -0.25 2.65625 -0.25 C 2.84375 -0.25 3.015625 -0.273438 3.171875 -0.328125 C 3.335938 -0.390625 3.488281 -0.484375 3.625 -0.609375 C 3.757812 -0.742188 3.878906 -0.925781 3.984375 -1.15625 L 4.171875 -1.078125 C 4.097656 -0.878906 3.988281 -0.6875 3.84375 -0.5 C 3.695312 -0.3125 3.507812 -0.160156 3.28125 -0.046875 C 3.050781 0.0664062 2.785156 0.125 2.484375 0.125 C 2.054688 0.125 1.6875 0.0234375 1.375 -0.171875 C 1.0625 -0.367188 0.820312 -0.640625 0.65625 -0.984375 C 0.488281 -1.335938 0.40625 -1.742188 0.40625 -2.203125 C 0.40625 -2.734375 0.488281 -3.1875 0.65625 -3.5625 C 0.832031 -3.945312 1.070312 -4.242188 1.375 -4.453125 C 1.6875 -4.660156 2.046875 -4.765625 2.453125 -4.765625 Z M 2.453125 -4.765625 "/></g></g></g><g fill="#000000" fill-opacity="1"><g transform="translate(176.24815, 214.514883)"><g><path d="M 3.28125 -4.765625 C 3.507812 -4.765625 3.703125 -4.734375 3.859375 -4.671875 C 4.015625 -4.609375 4.140625 -4.523438 4.234375 -4.421875 C 4.347656 -4.296875 4.425781 -4.144531 4.46875 -3.96875 C 4.519531 -3.789062 4.546875 -3.546875 4.546875 -3.234375 L 4.546875 -0.84375 C 4.546875 -0.582031 4.597656 -0.40625 4.703125 -0.3125 C 4.816406 -0.226562 4.992188 -0.1875 5.234375 -0.1875 L 5.234375 0 C 5.128906 -0.0078125 4.972656 -0.015625 4.765625 -0.015625 C 4.554688 -0.0234375 4.351562 -0.03125 4.15625 -0.03125 C 3.957031 -0.03125 3.765625 -0.0234375 3.578125 -0.015625 C 3.390625 -0.015625 3.25 -0.0078125 3.15625 0 L 3.15625 -0.1875 C 3.363281 -0.1875 3.515625 -0.226562 3.609375 -0.3125 C 3.703125 -0.40625 3.75 -0.582031 3.75 -0.84375 L 3.75 -3.4375 C 3.75 -3.625 3.734375 -3.796875 3.703125 -3.953125 C 3.671875 -4.109375 3.601562 -4.234375 3.5 -4.328125 C 3.394531 -4.421875 3.234375 -4.46875 3.015625 -4.46875 C 2.765625 -4.46875 2.539062 -4.394531 2.34375 -4.25 C 2.15625 -4.113281 2.007812 -3.921875 1.90625 -3.671875 C 1.800781 -3.421875 1.75 -3.140625 1.75 -2.828125 L 1.75 -0.84375 C 1.75 -0.582031 1.796875 -0.40625 1.890625 -0.3125 C 1.984375 -0.226562 2.132812 -0.1875 2.34375 -0.1875 L 2.34375 0 C 2.25 -0.0078125 2.109375 -0.015625 1.921875 -0.015625 C 1.734375 -0.0234375 1.539062 -0.03125 1.34375 -0.03125 C 1.144531 -0.03125 0.9375 -0.0234375 0.71875 -0.015625 C 0.507812 -0.015625 0.359375 -0.0078125 0.265625 0 L 0.265625 -0.1875 C 0.503906 -0.1875 0.675781 -0.226562 0.78125 -0.3125 C 0.882812 -0.40625 0.9375 -0.582031 0.9375 -0.84375 L 0.9375 -3.65625 C 0.9375 -3.925781 0.890625 -4.125 0.796875 -4.25 C 0.703125 -4.382812 0.523438 -4.453125 0.265625 -4.453125 L 0.265625 -4.640625 C 0.453125 -4.617188 0.632812 -4.609375 0.8125 -4.609375 C 0.988281 -4.609375 1.15625 -4.617188 1.3125 -4.640625 C 1.476562 -4.660156 1.625 -4.691406 1.75 -4.734375 L 1.75 -3.671875 C 1.90625 -4.078125 2.125 -4.359375 2.40625 -4.515625 C 2.6875 -4.679688 2.976562 -4.765625 3.28125 -4.765625 Z M 3.28125 -4.765625 "/></g></g></g><g fill="#000000" fill-opacity="1"><g transform="translate(181.621185, 214.514883)"><g><path d="M 4.359375 -7.0625 L 4.359375 -0.984375 C 4.359375 -0.710938 4.40625 -0.507812 4.5 -0.375 C 4.601562 -0.25 4.785156 -0.1875 5.046875 -0.1875 L 5.046875 0 C 4.859375 -0.0195312 4.671875 -0.03125 4.484375 -0.03125 C 4.304688 -0.03125 4.140625 -0.0195312 3.984375 0 C 3.828125 0.0195312 3.679688 0.0507812 3.546875 0.09375 L 3.546875 -5.96875 C 3.546875 -6.238281 3.5 -6.4375 3.40625 -6.5625 C 3.3125 -6.695312 3.128906 -6.765625 2.859375 -6.765625 L 2.859375 -6.953125 C 3.054688 -6.941406 3.242188 -6.9375 3.421875 -6.9375 C 3.597656 -6.9375 3.765625 -6.945312 3.921875 -6.96875 C 4.078125 -6.988281 4.222656 -7.019531 4.359375 -7.0625 Z M 2.46875 -4.765625 C 2.726562 -4.765625 2.972656 -4.703125 3.203125 -4.578125 C 3.441406 -4.453125 3.597656 -4.234375 3.671875 -3.921875 L 3.5625 -3.828125 C 3.46875 -4.085938 3.332031 -4.269531 3.15625 -4.375 C 2.976562 -4.488281 2.769531 -4.546875 2.53125 -4.546875 C 2.175781 -4.546875 1.878906 -4.363281 1.640625 -4 C 1.410156 -3.632812 1.300781 -3.070312 1.3125 -2.3125 C 1.3125 -1.820312 1.351562 -1.414062 1.4375 -1.09375 C 1.53125 -0.78125 1.671875 -0.539062 1.859375 -0.375 C 2.046875 -0.21875 2.269531 -0.140625 2.53125 -0.140625 C 2.78125 -0.140625 3.003906 -0.25 3.203125 -0.46875 C 3.410156 -0.6875 3.535156 -1.003906 3.578125 -1.421875 L 3.6875 -1.296875 C 3.644531 -0.835938 3.5 -0.484375 3.25 -0.234375 C 3.007812 0.00390625 2.679688 0.125 2.265625 0.125 C 1.890625 0.125 1.5625 0.0351562 1.28125 -0.140625 C 1.007812 -0.316406 0.800781 -0.585938 0.65625 -0.953125 C 0.507812 -1.316406 0.4375 -1.769531 0.4375 -2.3125 C 0.4375 -2.851562 0.53125 -3.304688 0.71875 -3.671875 C 0.90625 -4.035156 1.148438 -4.304688 1.453125 -4.484375 C 1.765625 -4.671875 2.101562 -4.765625 2.46875 -4.765625 Z M 2.46875 -4.765625 "/></g></g></g><g fill="#000000" fill-opacity="1"><g transform="translate(186.850219, 214.514883)"><g/></g></g><g fill="#000000" fill-opacity="1"><g transform="translate(189.091236, 214.514883)"><g><path d="M 2.828125 -6.375 C 3.910156 -6.375 4.710938 -6.101562 5.234375 -5.5625 C 5.753906 -5.03125 6.015625 -4.265625 6.015625 -3.265625 C 6.015625 -2.609375 5.882812 -2.035156 5.625 -1.546875 C 5.375 -1.054688 5.003906 -0.675781 4.515625 -0.40625 C 4.023438 -0.132812 3.4375 0 2.75 0 C 2.664062 0 2.546875 0 2.390625 0 C 2.242188 -0.0078125 2.085938 -0.015625 1.921875 -0.015625 C 1.765625 -0.0234375 1.625 -0.03125 1.5 -0.03125 C 1.28125 -0.03125 1.066406 -0.0234375 0.859375 -0.015625 C 0.660156 -0.015625 0.5 -0.0078125 0.375 0 L 0.375 -0.1875 C 0.582031 -0.195312 0.738281 -0.21875 0.84375 -0.25 C 0.945312 -0.289062 1.015625 -0.363281 1.046875 -0.46875 C 1.085938 -0.570312 1.109375 -0.734375 1.109375 -0.953125 L 1.109375 -5.421875 C 1.109375 -5.640625 1.085938 -5.800781 1.046875 -5.90625 C 1.015625 -6.007812 0.945312 -6.082031 0.84375 -6.125 C 0.738281 -6.164062 0.582031 -6.1875 0.375 -6.1875 L 0.375 -6.375 C 0.5 -6.363281 0.660156 -6.351562 0.859375 -6.34375 C 1.066406 -6.34375 1.269531 -6.34375 1.46875 -6.34375 C 1.6875 -6.351562 1.925781 -6.359375 2.1875 -6.359375 C 2.445312 -6.367188 2.660156 -6.375 2.828125 -6.375 Z M 2.609375 -6.203125 C 2.335938 -6.203125 2.15625 -6.148438 2.0625 -6.046875 C 1.976562 -5.953125 1.9375 -5.75 1.9375 -5.4375 L 1.9375 -0.9375 C 1.9375 -0.625 1.976562 -0.414062 2.0625 -0.3125 C 2.15625 -0.207031 2.34375 -0.15625 2.625 -0.15625 C 3.269531 -0.15625 3.773438 -0.273438 4.140625 -0.515625 C 4.503906 -0.753906 4.753906 -1.097656 4.890625 -1.546875 C 5.035156 -2.003906 5.109375 -2.5625 5.109375 -3.21875 C 5.109375 -3.894531 5.03125 -4.453125 4.875 -4.890625 C 4.71875 -5.328125 4.457031 -5.65625 4.09375 -5.875 C 3.726562 -6.09375 3.234375 -6.203125 2.609375 -6.203125 Z M 2.609375 -6.203125 "/></g></g></g><g fill="#000000" fill-opacity="1"><g transform="translate(195.598277, 214.514883)"><g><path d="M 2.453125 -4.765625 C 2.972656 -4.765625 3.378906 -4.601562 3.671875 -4.28125 C 3.972656 -3.957031 4.125 -3.457031 4.125 -2.78125 L 0.953125 -2.78125 L 0.9375 -2.953125 L 3.265625 -2.953125 C 3.273438 -3.242188 3.25 -3.515625 3.1875 -3.765625 C 3.132812 -4.015625 3.039062 -4.210938 2.90625 -4.359375 C 2.78125 -4.515625 2.613281 -4.59375 2.40625 -4.59375 C 2.132812 -4.59375 1.890625 -4.453125 1.671875 -4.171875 C 1.460938 -3.898438 1.335938 -3.460938 1.296875 -2.859375 L 1.328125 -2.828125 C 1.316406 -2.734375 1.304688 -2.628906 1.296875 -2.515625 C 1.285156 -2.410156 1.28125 -2.304688 1.28125 -2.203125 C 1.28125 -1.796875 1.347656 -1.445312 1.484375 -1.15625 C 1.617188 -0.863281 1.789062 -0.640625 2 -0.484375 C 2.21875 -0.328125 2.4375 -0.25 2.65625 -0.25 C 2.84375 -0.25 3.015625 -0.273438 3.171875 -0.328125 C 3.335938 -0.390625 3.488281 -0.484375 3.625 -0.609375 C 3.757812 -0.742188 3.878906 -0.925781 3.984375 -1.15625 L 4.171875 -1.078125 C 4.097656 -0.878906 3.988281 -0.6875 3.84375 -0.5 C 3.695312 -0.3125 3.507812 -0.160156 3.28125 -0.046875 C 3.050781 0.0664062 2.785156 0.125 2.484375 0.125 C 2.054688 0.125 1.6875 0.0234375 1.375 -0.171875 C 1.0625 -0.367188 0.820312 -0.640625 0.65625 -0.984375 C 0.488281 -1.335938 0.40625 -1.742188 0.40625 -2.203125 C 0.40625 -2.734375 0.488281 -3.1875 0.65625 -3.5625 C 0.832031 -3.945312 1.070312 -4.242188 1.375 -4.453125 C 1.6875 -4.660156 2.046875 -4.765625 2.453125 -4.765625 Z M 2.453125 -4.765625 "/></g></g></g><g fill="#000000" fill-opacity="1"><g transform="translate(200.152304, 214.514883)"><g><path d="M 4.375 -4.640625 L 4.375 -4.453125 C 4.257812 -4.441406 4.15625 -4.390625 4.0625 -4.296875 C 3.96875 -4.210938 3.875 -4.054688 3.78125 -3.828125 L 2.3125 0.046875 C 2.289062 0.046875 2.265625 0.046875 2.234375 0.046875 C 2.210938 0.046875 2.1875 0.046875 2.15625 0.046875 L 0.5 -3.9375 C 0.40625 -4.175781 0.3125 -4.320312 0.21875 -4.375 C 0.125 -4.425781 0.046875 -4.453125 -0.015625 -4.453125 L -0.015625 -4.640625 C 0.0976562 -4.628906 0.21875 -4.617188 0.34375 -4.609375 C 0.476562 -4.597656 0.625 -4.59375 0.78125 -4.59375 C 0.957031 -4.59375 1.148438 -4.59375 1.359375 -4.59375 C 1.566406 -4.601562 1.757812 -4.617188 1.9375 -4.640625 L 1.9375 -4.453125 C 1.789062 -4.453125 1.660156 -4.441406 1.546875 -4.421875 C 1.429688 -4.398438 1.351562 -4.335938 1.3125 -4.234375 C 1.28125 -4.140625 1.3125 -3.976562 1.40625 -3.75 L 2.53125 -0.96875 L 2.46875 -0.921875 L 3.5 -3.609375 C 3.582031 -3.804688 3.613281 -3.960938 3.59375 -4.078125 C 3.582031 -4.191406 3.523438 -4.28125 3.421875 -4.34375 C 3.316406 -4.40625 3.15625 -4.441406 2.9375 -4.453125 L 2.9375 -4.640625 C 3.039062 -4.628906 3.128906 -4.617188 3.203125 -4.609375 C 3.285156 -4.609375 3.363281 -4.609375 3.4375 -4.609375 C 3.519531 -4.609375 3.601562 -4.609375 3.6875 -4.609375 C 3.820312 -4.609375 3.945312 -4.609375 4.0625 -4.609375 C 4.175781 -4.617188 4.28125 -4.628906 4.375 -4.640625 Z M 4.375 -4.640625 "/></g></g></g><g fill="#000000" fill-opacity="1"><g transform="translate(204.553336, 214.514883)"><g><path d="M 2.453125 -4.765625 C 2.972656 -4.765625 3.378906 -4.601562 3.671875 -4.28125 C 3.972656 -3.957031 4.125 -3.457031 4.125 -2.78125 L 0.953125 -2.78125 L 0.9375 -2.953125 L 3.265625 -2.953125 C 3.273438 -3.242188 3.25 -3.515625 3.1875 -3.765625 C 3.132812 -4.015625 3.039062 -4.210938 2.90625 -4.359375 C 2.78125 -4.515625 2.613281 -4.59375 2.40625 -4.59375 C 2.132812 -4.59375 1.890625 -4.453125 1.671875 -4.171875 C 1.460938 -3.898438 1.335938 -3.460938 1.296875 -2.859375 L 1.328125 -2.828125 C 1.316406 -2.734375 1.304688 -2.628906 1.296875 -2.515625 C 1.285156 -2.410156 1.28125 -2.304688 1.28125 -2.203125 C 1.28125 -1.796875 1.347656 -1.445312 1.484375 -1.15625 C 1.617188 -0.863281 1.789062 -0.640625 2 -0.484375 C 2.21875 -0.328125 2.4375 -0.25 2.65625 -0.25 C 2.84375 -0.25 3.015625 -0.273438 3.171875 -0.328125 C 3.335938 -0.390625 3.488281 -0.484375 3.625 -0.609375 C 3.757812 -0.742188 3.878906 -0.925781 3.984375 -1.15625 L 4.171875 -1.078125 C 4.097656 -0.878906 3.988281 -0.6875 3.84375 -0.5 C 3.695312 -0.3125 3.507812 -0.160156 3.28125 -0.046875 C 3.050781 0.0664062 2.785156 0.125 2.484375 0.125 C 2.054688 0.125 1.6875 0.0234375 1.375 -0.171875 C 1.0625 -0.367188 0.820312 -0.640625 0.65625 -0.984375 C 0.488281 -1.335938 0.40625 -1.742188 0.40625 -2.203125 C 0.40625 -2.734375 0.488281 -3.1875 0.65625 -3.5625 C 0.832031 -3.945312 1.070312 -4.242188 1.375 -4.453125 C 1.6875 -4.660156 2.046875 -4.765625 2.453125 -4.765625 Z M 2.453125 -4.765625 "/></g></g></g><g fill="#000000" fill-opacity="1"><g transform="translate(209.107363, 214.514883)"><g><path d="M 1.6875 -7.0625 L 1.6875 -0.84375 C 1.6875 -0.582031 1.738281 -0.40625 1.84375 -0.3125 C 1.945312 -0.226562 2.125 -0.1875 2.375 -0.1875 L 2.375 0 C 2.269531 -0.0078125 2.113281 -0.015625 1.90625 -0.015625 C 1.707031 -0.0234375 1.5 -0.03125 1.28125 -0.03125 C 1.082031 -0.03125 0.875 -0.0234375 0.65625 -0.015625 C 0.445312 -0.015625 0.296875 -0.0078125 0.203125 0 L 0.203125 -0.1875 C 0.441406 -0.1875 0.613281 -0.226562 0.71875 -0.3125 C 0.820312 -0.40625 0.875 -0.582031 0.875 -0.84375 L 0.875 -5.96875 C 0.875 -6.238281 0.828125 -6.4375 0.734375 -6.5625 C 0.640625 -6.695312 0.460938 -6.765625 0.203125 -6.765625 L 0.203125 -6.953125 C 0.390625 -6.941406 0.570312 -6.9375 0.75 -6.9375 C 0.925781 -6.9375 1.09375 -6.945312 1.25 -6.96875 C 1.414062 -6.988281 1.5625 -7.019531 1.6875 -7.0625 Z M 1.6875 -7.0625 "/></g></g></g><g fill="#000000" fill-opacity="1"><g transform="translate(211.681379, 214.514883)"><g><path d="M 2.46875 -4.765625 C 2.851562 -4.765625 3.195312 -4.675781 3.5 -4.5 C 3.800781 -4.332031 4.046875 -4.066406 4.234375 -3.703125 C 4.421875 -3.347656 4.515625 -2.882812 4.515625 -2.3125 C 4.515625 -1.738281 4.421875 -1.269531 4.234375 -0.90625 C 4.046875 -0.550781 3.800781 -0.289062 3.5 -0.125 C 3.195312 0.0390625 2.851562 0.125 2.46875 0.125 C 2.09375 0.125 1.75 0.0390625 1.4375 -0.125 C 1.125 -0.289062 0.875 -0.550781 0.6875 -0.90625 C 0.507812 -1.269531 0.421875 -1.738281 0.421875 -2.3125 C 0.421875 -2.882812 0.507812 -3.347656 0.6875 -3.703125 C 0.875 -4.066406 1.125 -4.332031 1.4375 -4.5 C 1.75 -4.675781 2.09375 -4.765625 2.46875 -4.765625 Z M 2.46875 -4.578125 C 2.125 -4.578125 1.84375 -4.398438 1.625 -4.046875 C 1.40625 -3.691406 1.296875 -3.113281 1.296875 -2.3125 C 1.296875 -1.507812 1.40625 -0.929688 1.625 -0.578125 C 1.84375 -0.222656 2.125 -0.046875 2.46875 -0.046875 C 2.8125 -0.046875 3.09375 -0.222656 3.3125 -0.578125 C 3.53125 -0.929688 3.640625 -1.507812 3.640625 -2.3125 C 3.640625 -3.113281 3.53125 -3.691406 3.3125 -4.046875 C 3.09375 -4.398438 2.8125 -4.578125 2.46875 -4.578125 Z M 2.46875 -4.578125 "/></g></g></g><g fill="#000000" fill-opacity="1"><g transform="translate(216.613416, 214.514883)"><g><path d="M 1.6875 -4.734375 L 1.6875 0.796875 C 1.6875 1.046875 1.765625 1.210938 1.921875 1.296875 C 2.078125 1.390625 2.289062 1.4375 2.5625 1.4375 L 2.5625 1.625 C 2.425781 1.625 2.238281 1.617188 2 1.609375 C 1.769531 1.597656 1.523438 1.59375 1.265625 1.59375 C 1.078125 1.59375 0.890625 1.597656 0.703125 1.609375 C 0.523438 1.617188 0.382812 1.625 0.28125 1.625 L 0.28125 1.4375 C 0.5 1.4375 0.648438 1.394531 0.734375 1.3125 C 0.828125 1.238281 0.875 1.09375 0.875 0.875 L 0.875 -3.65625 C 0.875 -3.925781 0.828125 -4.125 0.734375 -4.25 C 0.640625 -4.382812 0.460938 -4.453125 0.203125 -4.453125 L 0.203125 -4.640625 C 0.390625 -4.617188 0.570312 -4.609375 0.75 -4.609375 C 0.925781 -4.609375 1.09375 -4.617188 1.25 -4.640625 C 1.414062 -4.660156 1.5625 -4.691406 1.6875 -4.734375 Z M 3.125 -4.765625 C 3.445312 -4.765625 3.734375 -4.675781 3.984375 -4.5 C 4.234375 -4.332031 4.429688 -4.082031 4.578125 -3.75 C 4.734375 -3.425781 4.8125 -3.019531 4.8125 -2.53125 C 4.8125 -2.207031 4.769531 -1.882812 4.6875 -1.5625 C 4.613281 -1.25 4.492188 -0.960938 4.328125 -0.703125 C 4.160156 -0.453125 3.945312 -0.25 3.6875 -0.09375 C 3.425781 0.0507812 3.113281 0.125 2.75 0.125 C 2.46875 0.125 2.222656 0.0625 2.015625 -0.0625 C 1.804688 -0.195312 1.664062 -0.359375 1.59375 -0.546875 L 1.6875 -0.671875 C 1.769531 -0.503906 1.890625 -0.363281 2.046875 -0.25 C 2.203125 -0.132812 2.398438 -0.078125 2.640625 -0.078125 C 2.984375 -0.078125 3.242188 -0.179688 3.421875 -0.390625 C 3.609375 -0.609375 3.738281 -0.890625 3.8125 -1.234375 C 3.894531 -1.585938 3.9375 -1.976562 3.9375 -2.40625 C 3.9375 -2.882812 3.894531 -3.273438 3.8125 -3.578125 C 3.738281 -3.890625 3.625 -4.117188 3.46875 -4.265625 C 3.3125 -4.410156 3.117188 -4.484375 2.890625 -4.484375 C 2.597656 -4.484375 2.332031 -4.363281 2.09375 -4.125 C 1.851562 -3.882812 1.695312 -3.519531 1.625 -3.03125 L 1.515625 -3.15625 C 1.585938 -3.664062 1.769531 -4.0625 2.0625 -4.34375 C 2.363281 -4.625 2.71875 -4.765625 3.125 -4.765625 Z M 3.125 -4.765625 "/></g></g></g><g fill="#000000" fill-opacity="1"><g transform="translate(221.84245, 214.514883)"><g><path d="M 2.453125 -4.765625 C 2.972656 -4.765625 3.378906 -4.601562 3.671875 -4.28125 C 3.972656 -3.957031 4.125 -3.457031 4.125 -2.78125 L 0.953125 -2.78125 L 0.9375 -2.953125 L 3.265625 -2.953125 C 3.273438 -3.242188 3.25 -3.515625 3.1875 -3.765625 C 3.132812 -4.015625 3.039062 -4.210938 2.90625 -4.359375 C 2.78125 -4.515625 2.613281 -4.59375 2.40625 -4.59375 C 2.132812 -4.59375 1.890625 -4.453125 1.671875 -4.171875 C 1.460938 -3.898438 1.335938 -3.460938 1.296875 -2.859375 L 1.328125 -2.828125 C 1.316406 -2.734375 1.304688 -2.628906 1.296875 -2.515625 C 1.285156 -2.410156 1.28125 -2.304688 1.28125 -2.203125 C 1.28125 -1.796875 1.347656 -1.445312 1.484375 -1.15625 C 1.617188 -0.863281 1.789062 -0.640625 2 -0.484375 C 2.21875 -0.328125 2.4375 -0.25 2.65625 -0.25 C 2.84375 -0.25 3.015625 -0.273438 3.171875 -0.328125 C 3.335938 -0.390625 3.488281 -0.484375 3.625 -0.609375 C 3.757812 -0.742188 3.878906 -0.925781 3.984375 -1.15625 L 4.171875 -1.078125 C 4.097656 -0.878906 3.988281 -0.6875 3.84375 -0.5 C 3.695312 -0.3125 3.507812 -0.160156 3.28125 -0.046875 C 3.050781 0.0664062 2.785156 0.125 2.484375 0.125 C 2.054688 0.125 1.6875 0.0234375 1.375 -0.171875 C 1.0625 -0.367188 0.820312 -0.640625 0.65625 -0.984375 C 0.488281 -1.335938 0.40625 -1.742188 0.40625 -2.203125 C 0.40625 -2.734375 0.488281 -3.1875 0.65625 -3.5625 C 0.832031 -3.945312 1.070312 -4.242188 1.375 -4.453125 C 1.6875 -4.660156 2.046875 -4.765625 2.453125 -4.765625 Z M 2.453125 -4.765625 "/></g></g></g><g fill="#000000" fill-opacity="1"><g transform="translate(226.396478, 214.514883)"><g><path d="M 3.0625 -4.765625 C 3.21875 -4.765625 3.359375 -4.726562 3.484375 -4.65625 C 3.609375 -4.59375 3.703125 -4.507812 3.765625 -4.40625 C 3.835938 -4.300781 3.875 -4.179688 3.875 -4.046875 C 3.875 -3.898438 3.828125 -3.769531 3.734375 -3.65625 C 3.640625 -3.539062 3.515625 -3.484375 3.359375 -3.484375 C 3.234375 -3.484375 3.125 -3.519531 3.03125 -3.59375 C 2.9375 -3.675781 2.890625 -3.796875 2.890625 -3.953125 C 2.890625 -4.066406 2.921875 -4.160156 2.984375 -4.234375 C 3.046875 -4.316406 3.113281 -4.382812 3.1875 -4.4375 C 3.144531 -4.5 3.082031 -4.53125 3 -4.53125 C 2.820312 -4.53125 2.65625 -4.472656 2.5 -4.359375 C 2.34375 -4.242188 2.207031 -4.097656 2.09375 -3.921875 C 1.988281 -3.753906 1.90625 -3.570312 1.84375 -3.375 C 1.78125 -3.1875 1.75 -3.003906 1.75 -2.828125 L 1.75 -0.921875 C 1.75 -0.628906 1.832031 -0.429688 2 -0.328125 C 2.175781 -0.234375 2.410156 -0.1875 2.703125 -0.1875 L 2.703125 0 C 2.566406 -0.0078125 2.375 -0.015625 2.125 -0.015625 C 1.875 -0.0234375 1.609375 -0.03125 1.328125 -0.03125 C 1.117188 -0.03125 0.910156 -0.0234375 0.703125 -0.015625 C 0.503906 -0.015625 0.359375 -0.0078125 0.265625 0 L 0.265625 -0.1875 C 0.503906 -0.1875 0.675781 -0.226562 0.78125 -0.3125 C 0.882812 -0.40625 0.9375 -0.582031 0.9375 -0.84375 L 0.9375 -3.65625 C 0.9375 -3.925781 0.890625 -4.125 0.796875 -4.25 C 0.703125 -4.382812 0.523438 -4.453125 0.265625 -4.453125 L 0.265625 -4.640625 C 0.453125 -4.617188 0.632812 -4.609375 0.8125 -4.609375 C 0.988281 -4.609375 1.15625 -4.617188 1.3125 -4.640625 C 1.476562 -4.660156 1.625 -4.691406 1.75 -4.734375 L 1.75 -3.609375 C 1.820312 -3.785156 1.914062 -3.960938 2.03125 -4.140625 C 2.15625 -4.316406 2.304688 -4.460938 2.484375 -4.578125 C 2.660156 -4.703125 2.851562 -4.765625 3.0625 -4.765625 Z M 3.0625 -4.765625 "/></g></g></g></svg>